# 3ds Max Wavefront OBJ Exporter v0.97b - (c)2007 guruware
# File Created: 23.01.2018 17:08:45

#
# object Box001
#

v  -1.1250 0.1195 1.1250
v  -1.1250 0.1195 -1.1250
v  1.1250 0.1195 -1.1250
v  1.1250 0.1195 1.1250
v  -1.1250 2.3805 1.1250
v  1.1250 2.3805 1.1250
v  1.1250 2.3805 -1.1250
v  -1.1250 2.3805 -1.1250
v  -1.1250 0.1250 1.1305
v  1.1250 0.1250 1.1305
v  1.1250 2.3750 1.1305
v  -1.1250 2.3750 1.1305
v  1.1305 0.1250 1.1250
v  1.1305 0.1250 -1.1250
v  1.1305 2.3750 -1.1250
v  1.1305 2.3750 1.1250
v  1.1250 0.1250 -1.1305
v  -1.1250 0.1250 -1.1305
v  -1.1250 2.3750 -1.1305
v  1.1250 2.3750 -1.1305
v  -1.1305 0.1250 -1.1250
v  -1.1305 0.1250 1.1250
v  -1.1305 2.3750 1.1250
v  -1.1305 2.3750 -1.1250
v  -1.2500 0.0000 1.2500
v  1.2500 0.0000 1.2500
v  1.1250 0.1250 1.2500
v  -1.1250 0.1250 1.2500
v  1.2500 2.5000 1.2500
v  1.1250 2.3750 1.2500
v  -1.2500 2.5000 1.2500
v  -1.1250 2.3750 1.2500
v  1.2500 0.0000 -1.2500
v  -1.2500 0.0000 -1.2500
v  -1.1250 0.1250 -1.2500
v  1.1250 0.1250 -1.2500
v  -1.2500 2.5000 -1.2500
v  -1.1250 2.3750 -1.2500
v  1.2500 2.5000 -1.2500
v  1.1250 2.3750 -1.2500
v  1.2500 0.1250 -1.1250
v  1.2500 0.1250 1.1250
v  1.2500 2.3750 -1.1250
v  1.2500 2.3750 1.1250
v  -1.2500 0.1250 1.1250
v  -1.2500 0.1250 -1.1250
v  -1.2500 2.3750 1.1250
v  -1.2500 2.3750 -1.1250
v  -1.1250 0.0000 -1.1250
v  -1.1250 0.0000 1.1250
v  1.1250 0.0000 -1.1250
v  1.1250 0.0000 1.1250
v  1.1250 2.5000 1.1250
v  -1.1250 2.5000 1.1250
v  1.1250 2.5000 -1.1250
v  -1.1250 2.5000 -1.1250
# 56 vertices

vn 0.0000 -1.0000 -0.0000
vn 0.0000 1.0000 -0.0000
vn 0.0000 0.0000 1.0000
vn 1.0000 0.0000 -0.0000
vn 0.0000 0.0000 -1.0000
vn -1.0000 0.0000 -0.0000
# 6 vertex normals

vt 0.9500 0.0500 0.0478
vt 0.9500 0.9500 0.0478
vt 0.0500 0.9500 0.0478
vt 0.0500 0.0500 0.0478
vt 0.0500 0.0500 0.9522
vt 0.9500 0.0500 0.9522
vt 0.9500 0.9500 0.9522
vt 0.0500 0.9500 0.9522
vt 0.0000 0.0000 0.0000
vt 1.0000 0.0000 0.0000
vt 0.9500 0.0500 0.0000
vt 0.0500 0.0500 0.0000
vt 1.0000 1.0000 0.0000
vt 0.9500 0.9500 0.0000
vt 0.0000 1.0000 0.0000
vt 0.0500 0.9500 0.0000
vt 0.0000 0.0000 1.0000
vt 1.0000 0.0000 1.0000
vt 0.9500 0.0500 1.0000
vt 0.0500 0.0500 1.0000
vt 1.0000 1.0000 1.0000
vt 0.9500 0.9500 1.0000
vt 0.0000 1.0000 1.0000
vt 0.0500 0.9500 1.0000
vt 0.0500 0.0000 0.0500
vt 0.9500 0.0000 0.0500
vt 0.9500 0.0478 0.0500
vt 0.0500 0.0478 0.0500
vt 0.0500 0.0000 0.9500
vt 0.9500 0.0000 0.9500
vt 0.9500 0.0478 0.9500
vt 0.0500 0.0478 0.9500
vt 0.9500 1.0000 0.0500
vt 0.0500 1.0000 0.0500
vt 0.0500 0.9522 0.0500
vt 0.9500 0.9522 0.0500
vt 0.9500 1.0000 0.9500
vt 0.0500 1.0000 0.9500
vt 0.0500 0.9522 0.9500
vt 0.9500 0.9522 0.9500
vt 1.0000 0.0500 0.9500
vt 1.0000 0.9500 0.9500
vt 0.9522 0.9500 0.9500
vt 0.9522 0.0500 0.9500
vt 0.0000 0.9500 0.0500
vt 0.0000 0.0500 0.0500
vt 0.0478 0.0500 0.0500
vt 0.0478 0.9500 0.0500
vt 1.0000 0.0500 0.0500
vt 1.0000 0.9500 0.0500
vt 0.9522 0.9500 0.0500
vt 0.9522 0.0500 0.0500
vt 0.0000 0.9500 0.9500
vt 0.0000 0.0500 0.9500
vt 0.0478 0.0500 0.9500
vt 0.0478 0.9500 0.9500
# 56 texture coords

g Box001
s 2
f 1/1/1 2/2/1 3/3/1 
f 3/3/1 4/4/1 1/1/1 
s 4
f 5/5/2 6/6/2 7/7/2 
f 7/7/2 8/8/2 5/5/2 
s 8
f 9/4/3 10/1/3 11/2/3 
f 11/2/3 12/3/3 9/4/3 
s 16
f 13/5/4 14/6/4 15/7/4 
f 15/7/4 16/8/4 13/5/4 
s 32
f 17/5/5 18/6/5 19/7/5 
f 19/7/5 20/8/5 17/5/5 
s 64
f 21/4/6 22/1/6 23/2/6 
f 23/2/6 24/3/6 21/4/6 
s off
f 25/9/3 26/10/3 27/11/3 
f 27/11/3 28/12/3 25/9/3 
f 26/10/3 29/13/3 30/14/3 
f 30/14/3 27/11/3 26/10/3 
f 29/13/3 31/15/3 32/16/3 
f 32/16/3 30/14/3 29/13/3 
f 31/15/3 25/9/3 28/12/3 
f 28/12/3 32/16/3 31/15/3 
f 33/17/5 34/18/5 35/19/5 
f 35/19/5 36/20/5 33/17/5 
f 34/18/5 37/21/5 38/22/5 
f 38/22/5 35/19/5 34/18/5 
f 37/21/5 39/23/5 40/24/5 
f 40/24/5 38/22/5 37/21/5 
f 39/23/5 33/17/5 36/20/5 
f 36/20/5 40/24/5 39/23/5 
f 26/17/4 33/18/4 41/19/4 
f 41/19/4 42/20/4 26/17/4 
f 33/18/4 39/21/4 43/22/4 
f 43/22/4 41/19/4 33/18/4 
f 39/21/4 29/23/4 44/24/4 
f 44/24/4 43/22/4 39/21/4 
f 29/23/4 26/17/4 42/20/4 
f 42/20/4 44/24/4 29/23/4 
f 34/9/6 25/10/6 45/11/6 
f 45/11/6 46/12/6 34/9/6 
f 25/10/6 31/13/6 47/14/6 
f 47/14/6 45/11/6 25/10/6 
f 31/13/6 37/15/6 48/16/6 
f 48/16/6 47/14/6 31/13/6 
f 37/15/6 34/9/6 46/12/6 
f 46/12/6 48/16/6 37/15/6 
f 25/10/1 34/13/1 49/14/1 
f 49/14/1 50/11/1 25/10/1 
f 34/13/1 33/15/1 51/16/1 
f 51/16/1 49/14/1 34/13/1 
f 33/15/1 26/9/1 52/12/1 
f 52/12/1 51/16/1 33/15/1 
f 26/9/1 25/10/1 50/11/1 
f 50/11/1 52/12/1 26/9/1 
f 31/17/2 29/18/2 53/19/2 
f 53/19/2 54/20/2 31/17/2 
f 29/18/2 39/21/2 55/22/2 
f 55/22/2 53/19/2 29/18/2 
f 39/21/2 37/23/2 56/24/2 
f 56/24/2 55/22/2 39/21/2 
f 37/23/2 31/17/2 54/20/2 
f 54/20/2 56/24/2 37/23/2 
f 50/25/4 49/26/4 2/27/4 
f 2/27/4 1/28/4 50/25/4 
f 49/29/3 51/30/3 3/31/3 
f 3/31/3 2/32/3 49/29/3 
f 51/29/6 52/30/6 4/31/6 
f 4/31/6 3/32/6 51/29/6 
f 52/25/5 50/26/5 1/27/5 
f 1/27/5 4/28/5 52/25/5 
f 54/33/5 53/34/5 6/35/5 
f 6/35/5 5/36/5 54/33/5 
f 53/37/6 55/38/6 7/39/6 
f 7/39/6 6/40/6 53/37/6 
f 55/37/3 56/38/3 8/39/3 
f 8/39/3 7/40/3 55/37/3 
f 56/33/4 54/34/4 5/35/4 
f 5/35/4 8/36/4 56/33/4 
f 28/25/2 27/26/2 10/27/2 
f 10/27/2 9/28/2 28/25/2 
f 27/41/6 30/42/6 11/43/6 
f 11/43/6 10/44/6 27/41/6 
f 30/29/1 32/30/1 12/31/1 
f 12/31/1 11/32/1 30/29/1 
f 32/45/4 28/46/4 9/47/4 
f 9/47/4 12/48/4 32/45/4 
f 42/49/2 41/50/2 14/51/2 
f 14/51/2 13/52/2 42/49/2 
f 41/41/3 43/42/3 15/43/3 
f 15/43/3 14/44/3 41/41/3 
f 43/53/1 44/54/1 16/55/1 
f 16/55/1 15/56/1 43/53/1 
f 44/45/5 42/46/5 13/47/5 
f 13/47/5 16/48/5 44/45/5 
f 36/33/2 35/34/2 18/35/2 
f 18/35/2 17/36/2 36/33/2 
f 35/49/4 38/50/4 19/51/4 
f 19/51/4 18/52/4 35/49/4 
f 38/37/1 40/38/1 20/39/1 
f 20/39/1 19/40/1 38/37/1 
f 40/53/6 36/54/6 17/55/6 
f 17/55/6 20/56/6 40/53/6 
f 46/45/2 45/46/2 22/47/2 
f 22/47/2 21/48/2 46/45/2 
f 45/49/5 47/50/5 23/51/5 
f 23/51/5 22/52/5 45/49/5 
f 47/41/1 48/42/1 24/43/1 
f 24/43/1 23/44/1 47/41/1 
f 48/53/3 46/54/3 21/55/3 
f 21/55/3 24/56/3 48/53/3 
# 108 faces

